<svg width="148" height="51" viewBox="0 0 148 51" fill="none" xmlns="http://www.w3.org/2000/svg">
<g clip-path="url(#clip0_1_5)">
<path d="M10.4059 8.46088H34.9129C36.2588 8.46089 37.5498 8.99603 38.5026 9.94891L49.9741 21.4548C50.0481 21.5281 50.1421 21.578 50.2443 21.598C50.3465 21.6181 50.4523 21.6074 50.5484 21.5674C50.6446 21.5274 50.7268 21.4597 50.7848 21.373C50.8427 21.2863 50.8738 21.1844 50.8742 21.0801V15.4187C50.8745 15.0696 50.8061 14.7239 50.673 14.4013C50.54 14.0788 50.3448 13.7856 50.0987 13.5387L38.0686 1.47942C37.117 0.532327 35.8306 0.000572752 34.4897 6.16868e-08H2.49614C2.23253 -8.02481e-05 1.97482 0.0782574 1.75565 0.225093C1.53648 0.371929 1.3657 0.580658 1.26495 0.824849C1.1642 1.06904 1.138 1.33771 1.18967 1.59684C1.24134 1.85597 1.36856 2.09389 1.55522 2.2805L27.8495 28.6408L28.8313 29.6271C29.115 29.9082 29.3088 30.2677 29.388 30.6596C29.4671 31.0516 29.4281 31.4583 29.2757 31.8279C29.1234 32.1975 28.8647 32.5133 28.5327 32.735C28.2006 32.9566 27.8102 33.0742 27.4113 33.0726H15.9634C14.6172 33.072 13.3262 32.5361 12.3737 31.5824L0.900006 20.0679C0.825988 19.9945 0.731992 19.9447 0.629815 19.9247C0.527639 19.9046 0.421835 19.9153 0.325683 19.9553C0.229531 19.9953 0.147315 20.0629 0.0893557 20.1496C0.0313962 20.2363 0.000275002 20.3383 -0.000101584 20.4426V26.0997C-0.000344368 26.4488 0.068019 26.7945 0.201083 27.117C0.334148 27.4396 0.529305 27.7327 0.775409 27.9797L12.8055 40.039C13.7578 40.9913 15.0479 41.5264 16.393 41.527H40.4768C40.6068 41.5251 40.7329 41.5711 40.8313 41.6562C40.9076 41.7252 40.9613 41.8158 40.9853 41.916C41.0093 42.0162 41.0025 42.1213 40.9658 42.2176C40.9291 42.3138 40.8641 42.3967 40.7795 42.4552C40.6949 42.5138 40.5946 42.5453 40.4918 42.5456H15.9612C14.6153 42.5456 13.3244 42.0104 12.3715 41.0575L0.900006 29.5452C0.825988 29.4718 0.731992 29.422 0.629815 29.402C0.527639 29.3819 0.421835 29.3926 0.325683 29.4326C0.229531 29.4726 0.147315 29.5402 0.0893557 29.6269C0.0313962 29.7136 0.000275002 29.8156 -0.000101584 29.9199V35.5813C-0.00147618 35.9318 0.0663375 36.2792 0.199434 36.6033C0.33253 36.9274 0.52828 37.2219 0.775409 37.4699L12.8055 49.5292C13.7578 50.4815 15.0479 51.0166 16.393 51.0172H48.378C48.6416 51.0173 48.8993 50.939 49.1185 50.7921C49.3376 50.6453 49.5084 50.4366 49.6092 50.1924C49.7099 49.9482 49.7361 49.6795 49.6845 49.4204C49.6328 49.1613 49.5056 48.9233 49.3189 48.7367L23.0246 22.3592L22.0429 21.3729C21.7591 21.0918 21.5653 20.7323 21.4861 20.3404C21.407 19.9484 21.4461 19.5417 21.5984 19.1721C21.7507 18.8025 22.0094 18.4867 22.3415 18.265C22.6735 18.0433 23.0639 17.9258 23.4628 17.9274H34.9129C36.2592 17.9278 37.5502 18.4637 38.5026 19.4176L49.9763 30.9213C50.0503 30.9947 50.1443 31.0445 50.2465 31.0646C50.3486 31.0846 50.4544 31.0739 50.5506 31.0339C50.6467 30.9939 50.729 30.9263 50.7869 30.8396C50.8449 30.7529 50.876 30.651 50.8764 30.5466V24.9003C50.8766 24.5512 50.8083 24.2055 50.6752 23.8829C50.5421 23.5604 50.347 23.2673 50.1009 23.0203L38.0708 10.961C37.1202 10.0116 35.8337 9.47744 34.4918 9.47515H10.3823C10.2751 9.47508 10.1707 9.44112 10.0839 9.37809C9.99713 9.31507 9.93239 9.2262 9.89893 9.12414C9.87104 9.04589 9.86314 8.96189 9.87596 8.87979C9.88878 8.7977 9.92191 8.72013 9.97232 8.65418C10.0227 8.58822 10.0888 8.53597 10.1646 8.50221C10.2403 8.46844 10.3233 8.45423 10.4059 8.46088Z" fill="#F4E216"/>
<path d="M75.0226 10.4572L71.6606 12.5633C71.1987 11.8376 70.8292 11.3617 70.5478 11.1399C70.2515 10.9102 69.8845 10.7914 69.5102 10.8039C69.0876 10.7875 68.6739 10.9278 68.348 11.198C68.2052 11.3168 68.091 11.4665 68.014 11.6358C67.9369 11.8051 67.8991 11.9896 67.9033 12.1757C67.9033 12.6552 68.3981 13.0765 69.3878 13.4397L70.87 13.9975C72.4368 14.5717 73.5575 15.2982 74.232 16.1768C74.8422 16.9421 75.1653 17.8977 75.145 18.8772C75.1577 19.6746 74.9883 20.4645 74.6499 21.1863C74.3114 21.9081 73.8129 22.5428 73.1923 23.0419C72.0649 23.9811 70.6386 24.4832 69.1729 24.4567C68.0313 24.4736 66.9084 24.1644 65.9356 23.5652C65.1131 23.0887 64.4375 22.3943 63.9828 21.5582C63.6087 20.8236 63.3417 20.0389 63.1901 19.2282L67.1472 18.1644C67.2473 18.7108 67.4132 19.243 67.6413 19.7493C67.7753 20.0526 67.9986 20.3077 68.2811 20.4804C68.5636 20.6532 68.892 20.7355 69.2224 20.7162C69.4857 20.7219 69.7473 20.6719 69.9901 20.5695C70.2329 20.4671 70.4515 20.3146 70.6316 20.1219C70.7904 19.9675 70.9162 19.7823 71.0011 19.5775C71.0861 19.3727 71.1285 19.1528 71.1257 18.931C71.1224 18.7708 71.0818 18.6137 71.0072 18.472C70.9326 18.3303 70.8261 18.208 70.696 18.1149C70.2351 17.7861 69.7284 17.5271 69.1923 17.3461L67.7852 16.8249C65.1973 15.8344 63.9033 14.2738 63.9033 12.1434C63.889 11.4078 64.0474 10.6792 64.3657 10.0164C64.684 9.35353 65.1533 8.77499 65.7358 8.32745C66.8252 7.47365 68.1772 7.02671 69.5596 7.06338C70.7072 7.02838 71.8376 7.3487 72.797 7.98075C73.5904 8.50906 74.3323 9.33455 75.0226 10.4572Z" fill="#F4E216"/>
<path d="M90.2986 11.1764H84.3416V13.8036H89.6305V17.5204H84.3416V20.2703H90.5199V24.0109H80.3609V7.48535H90.2986V11.1764Z" fill="#F4E216"/>
<path d="M105.592 20.5912H99.6348L98.4748 24.0109H94.2234L100.378 7.48535H104.876L111.031 24.0109H106.754L105.592 20.5912ZM104.333 16.8507L102.627 11.8202L100.922 16.8507H104.333Z" fill="#F4E216"/>
<path d="M120.099 11.2259V24.0109H116.095V11.2259H112.288V7.48535H123.905V11.2259H120.099Z" fill="#F4E216"/>
<path d="M75.0226 32.6547L71.6606 34.7608C71.1987 34.0351 70.8292 33.5591 70.5478 33.3352C70.2508 33.1071 69.8842 32.9892 69.5102 33.0014C69.0892 32.9829 68.6759 33.1192 68.348 33.3847C68.2051 33.504 68.0909 33.654 68.0139 33.8237C67.9369 33.9933 67.8991 34.1782 67.9033 34.3645C67.9033 34.8426 68.3981 35.264 69.3878 35.6286L70.87 36.1971C72.4368 36.7714 73.5575 37.4985 74.232 38.3786C74.8422 39.1439 75.1653 40.0995 75.145 41.079C75.1573 41.8761 74.9878 42.6655 74.6494 43.3869C74.311 44.1083 73.8126 44.7427 73.1923 45.2416C72.0641 46.179 70.6381 46.6802 69.1729 46.6542C68.0313 46.6711 66.9084 46.3619 65.9356 45.7627C65.1131 45.2862 64.4375 44.5918 63.9828 43.7557C63.609 43.021 63.342 42.2363 63.1901 41.4257L67.1472 40.349C67.247 40.8961 67.4129 41.4291 67.6413 41.936C67.7753 42.2393 67.9986 42.4944 68.2811 42.6672C68.5636 42.8399 68.892 42.9222 69.2224 42.9029C69.4859 42.9082 69.7475 42.8579 69.9903 42.7551C70.2331 42.6523 70.4516 42.4994 70.6316 42.3064C70.7906 42.1526 70.9164 41.9678 71.0014 41.7634C71.0864 41.5589 71.1287 41.3392 71.1257 41.1177C71.1224 40.9573 71.0818 40.7998 71.0072 40.6577C70.9327 40.5157 70.8261 40.393 70.696 40.2994C70.2344 39.9724 69.7278 39.7142 69.1923 39.5328L67.7852 39.0117C65.1973 38.0211 63.9033 36.4598 63.9033 34.3279C63.8909 33.5942 64.0501 32.8678 64.3684 32.207C64.6866 31.5462 65.1549 30.9694 65.7358 30.5228C66.8272 29.6682 68.1817 29.2219 69.5661 29.2609C70.7133 29.2261 71.8434 29.5456 72.8034 30.1761C73.5926 30.7058 74.3323 31.532 75.0226 32.6547Z" fill="#F4E216"/>
<path d="M91.9441 35.2067C91.3987 34.5404 90.7451 33.971 90.0107 33.5227C89.4041 33.1786 88.7185 32.999 88.0215 33.0016C87.3401 32.9834 86.6633 33.1187 86.0409 33.3975C85.4186 33.6763 84.8665 34.0914 84.4254 34.6123C83.61 35.5325 83.1692 36.7261 83.1901 37.9566C83.1751 38.6452 83.3088 39.3288 83.5821 39.9607C83.8554 40.5926 84.2618 41.1578 84.7734 41.6175C85.6421 42.4565 86.8045 42.9205 88.0107 42.9096C88.7255 42.916 89.4292 42.7317 90.0494 42.3755C90.7939 41.9125 91.4579 41.3305 92.015 40.6527L94.8829 43.3058C93.7444 44.5447 92.5908 45.4284 91.4221 45.9567C90.3699 46.4265 89.2292 46.6645 88.0773 46.6544C86.5298 46.6677 85.0053 46.2778 83.6534 45.5228C82.3014 44.7678 81.1683 43.6736 80.3652 42.3475C79.5736 41.0176 79.1556 39.4978 79.1556 37.9491C79.1556 36.4004 79.5736 34.8806 80.3652 33.5507C81.1544 32.25 82.264 31.1747 83.5875 30.4282C84.9694 29.6536 86.5285 29.2529 88.1117 29.2653C89.3203 29.2526 90.516 29.5147 91.609 30.032C92.6731 30.5445 93.7401 31.3786 94.8099 32.5343L91.9441 35.2067Z" fill="#F4E216"/>
<path d="M98.1933 37.9565C98.1864 36.4113 98.6049 34.8942 99.4028 33.5721C100.201 32.2542 101.324 31.1647 102.664 30.4085C104.004 29.6524 105.516 29.2551 107.054 29.2551C108.592 29.2551 110.103 29.6524 111.444 30.4085C112.784 31.1647 113.907 32.2542 114.705 33.5721C115.496 34.8927 115.914 36.4042 115.914 37.9447C115.914 39.4852 115.496 40.9967 114.705 42.3172C113.905 43.6323 112.784 44.721 111.447 45.4799C110.11 46.2389 108.602 46.6431 107.065 46.6543C105.492 46.6606 103.947 46.2401 102.593 45.4376C101.275 44.6948 100.175 43.618 99.4028 42.3151C98.6072 41.0015 98.1887 39.4932 98.1933 37.9565ZM102.221 37.9565C102.21 38.6468 102.348 39.3313 102.625 39.9631C102.903 40.595 103.313 41.1593 103.828 41.6174C104.292 42.0569 104.84 42.3977 105.439 42.6191C106.038 42.8405 106.676 42.9379 107.313 42.9055C107.951 42.8731 108.575 42.7115 109.149 42.4306C109.723 42.1496 110.234 41.755 110.651 41.2707C111.458 40.355 111.898 39.172 111.886 37.9501C111.9 37.2574 111.766 36.5697 111.494 35.9332C111.221 35.2966 110.816 34.7258 110.305 34.2591C109.428 33.4348 108.268 32.9819 107.065 32.995C106.38 32.9809 105.701 33.1203 105.077 33.4031C104.452 33.6859 103.899 34.1049 103.456 34.6294C102.643 35.544 102.202 36.7315 102.221 37.9565Z" fill="#F4E216"/>
<path d="M125.929 40.6828H125.781C125.551 40.7 125.351 40.7065 125.164 40.7065H124.99V46.2085H120.962V29.6809H125.164C126.101 29.6584 127.037 29.7671 127.944 30.0039C128.683 30.2191 129.366 30.5943 129.945 31.1029C130.523 31.6116 130.984 32.2413 131.293 32.9476C131.622 33.6756 131.79 34.4658 131.787 35.2647C131.791 36.0927 131.605 36.9104 131.244 37.6551C130.901 38.3851 130.385 39.0196 129.74 39.5027L133.523 46.2171H128.995L125.929 40.6828ZM124.967 37.0392H125.362C126.269 37.0392 126.919 36.897 127.315 36.6085C127.71 36.3199 127.908 35.8742 127.908 35.2454C127.908 34.585 127.71 34.1062 127.315 33.809C126.919 33.5118 126.269 33.3683 125.362 33.3783H124.967V37.0392Z" fill="#F4E216"/>
<path d="M147.779 33.3784H141.822V36.0034H147.111V39.7203H141.822V42.4659H148V46.2086H137.841V29.6809H147.779V33.3784Z" fill="#F4E216"/>
</g>
<defs>
<clipPath id="clip0_1_5">
<rect width="148" height="51" fill="white"/>
</clipPath>
</defs>
</svg>
